<svg id="img_logo" xmlns="http://www.w3.org/2000/svg" xmlns:xlink="http://www.w3.org/1999/xlink" width="167.896" height="37.052" viewBox="0 0 167.896 37.052">
  <defs>
    <clipPath id="clip-path">
      <rect id="Rectángulo_16370" data-name="Rectángulo 16370" width="167.896" height="37.052" fill="#2984bd"/>
    </clipPath>
  </defs>
  <g id="Grupo_51634" data-name="Grupo 51634" clip-path="url(#clip-path)">
    <path id="Trazado_117916" data-name="Trazado 117916" d="M209.308,49.671a8.06,8.06,0,0,0-.247-2.517.938.938,0,0,0-.959-.586.868.868,0,0,0-.9.512,9.265,9.265,0,0,0-.208,2.591V60.36a8.091,8.091,0,0,0,.234,2.562.913.913,0,0,0,.933.565.9.9,0,0,0,.933-.581,10.715,10.715,0,0,0,.218-2.783Zm-2.319-11.25h0v5.907a6.291,6.291,0,0,1,2.1-1.621,5.937,5.937,0,0,1,2.51-.535,7.026,7.026,0,0,1,2.708.483,4.071,4.071,0,0,1,2.469,3.1,32.067,32.067,0,0,1,.125,3.581V60.514a16.475,16.475,0,0,1-.37,4.06,4.3,4.3,0,0,1-1.714,2.32,5.357,5.357,0,0,1-3.218.981,5.445,5.445,0,0,1-2.49-.576,6.566,6.566,0,0,1-2.12-1.747l-.2.77a1.485,1.485,0,0,1-1.439,1.106h-4.7a1.255,1.255,0,0,1-1.259-1.251V38.421a1.255,1.255,0,0,1,1.259-1.251h5.08a1.255,1.255,0,0,1,1.259,1.251" transform="translate(-166.789 -31.128)" fill="#2984bd" fill-rule="evenodd"/>
    <path id="Trazado_117917" data-name="Trazado 117917" d="M335.974,75.233a7.916,7.916,0,0,0-.214-2.4.845.845,0,0,0-.882-.5.888.888,0,0,0-.9.5,7.35,7.35,0,0,0-.225,2.4v11.2a7.016,7.016,0,0,0,.225,2.284.859.859,0,0,0,.877.54.871.871,0,0,0,.9-.49,6.162,6.162,0,0,0,.219-2.089Zm7.592,1.871h0v6.074a25.7,25.7,0,0,1-.333,4.914A6.875,6.875,0,0,1,341.781,91a6.479,6.479,0,0,1-2.847,2,11.512,11.512,0,0,1-4,.643,14.231,14.231,0,0,1-4.265-.55,5.877,5.877,0,0,1-2.721-1.665,6.568,6.568,0,0,1-1.378-2.688,20.376,20.376,0,0,1-.414-4.736V77.646a15.479,15.479,0,0,1,.747-5.4,6.288,6.288,0,0,1,2.714-3.127,9.58,9.58,0,0,1,5-1.18,11.317,11.317,0,0,1,4.391.765,7.057,7.057,0,0,1,2.834,1.965,6.882,6.882,0,0,1,1.36,2.508,15.452,15.452,0,0,1,.367,3.923" transform="translate(-272.826 -56.899)" fill="#2984bd" fill-rule="evenodd"/>
    <path id="Trazado_117918" data-name="Trazado 117918" d="M17.447,47.068h-5.39A1.255,1.255,0,0,1,10.8,45.817V41.809a9.084,9.084,0,0,0-.257-2.857,1.1,1.1,0,0,0-1.12-.58,1.171,1.171,0,0,0-1.237.7,10.072,10.072,0,0,0-.267,2.987V56.117A9.475,9.475,0,0,0,8.184,59a1.125,1.125,0,0,0,1.175.671,1.12,1.12,0,0,0,1.161-.676,10.872,10.872,0,0,0,.277-3.166V53.205a1.188,1.188,0,0,1,1.192-1.184h5.524a1.188,1.188,0,0,1,1.191,1.184,23.276,23.276,0,0,1-.663,6.661,6.81,6.81,0,0,1-2.949,3.443,10.2,10.2,0,0,1-5.639,1.481,11.825,11.825,0,0,1-5.732-1.246A6.139,6.139,0,0,1,.732,60.069,22.543,22.543,0,0,1,0,53.4V44.566a38.37,38.37,0,0,1,.226-4.9,6.91,6.91,0,0,1,1.336-3.155A7.616,7.616,0,0,1,4.67,34.123a11.243,11.243,0,0,1,4.566-.863A11.166,11.166,0,0,1,15.005,34.6,6.478,6.478,0,0,1,18,37.952a20.172,20.172,0,0,1,.71,6.237v1.628a1.255,1.255,0,0,1-1.259,1.251" transform="translate(0 -27.854)" fill="#2984bd" fill-rule="evenodd"/>
    <path id="Trazado_117919" data-name="Trazado 117919" d="M138.247,4.3A4.329,4.329,0,1,1,133.918,0a4.315,4.315,0,0,1,4.329,4.3" transform="translate(-108.4 -0.001)" fill="#2984bd" fill-rule="evenodd"/>
    <path id="Trazado_117920" data-name="Trazado 117920" d="M139.308,93.048h-4.471a1.483,1.483,0,0,1-1.488-1.479V69.3a1.483,1.483,0,0,1,1.488-1.479h4.471A1.483,1.483,0,0,1,140.8,69.3V91.569a1.483,1.483,0,0,1-1.488,1.479" transform="translate(-111.545 -56.794)" fill="#2984bd" fill-rule="evenodd"/>
    <path id="Trazado_117921" data-name="Trazado 117921" d="M459.793,80.27h-7.032V101.7h-2.74V80.27H442.96V77.576h16.834Z" transform="translate(-370.531 -64.966)" fill="#2984bd"/>
    <path id="Trazado_117922" data-name="Trazado 117922" d="M573.341,80.255v7.634h9.982v2.724h-9.982v8.382h11.518V101.7H570.6V77.576h14.259v2.679Z" transform="translate(-477.302 -64.966)" fill="#2984bd"/>
    <path id="Trazado_117923" data-name="Trazado 117923" d="M667.352,87.88a12.549,12.549,0,0,1,12.467-12.423,12.171,12.171,0,0,1,8.342,3.652l-1.6,2.14a9.618,9.618,0,1,0,.015,13.262L688.16,96.7a11.594,11.594,0,0,1-8.326,3.547A12.511,12.511,0,0,1,667.352,87.88" transform="translate(-558.234 -63.192)" fill="#2984bd"/>
    <path id="Trazado_117924" data-name="Trazado 117924" d="M834.055,77.575V101.7H831.33V90.972h-12.3V101.7h-2.74V77.575h2.74v10.7h12.3v-10.7Z" transform="translate(-682.817 -64.966)" fill="#2984bd"/>
    <path id="Trazado_117925" data-name="Trazado 117925" d="M965.795,81.18a3.633,3.633,0,0,0-.557-1.854,6.106,6.106,0,0,1-.977-2.138c-.044-.269-.287-.341-.533-.384a4.3,4.3,0,0,1-3.021-1.892,4.532,4.532,0,0,1-.716-2.264c-.036-.632.212-.881.854-.878a4.059,4.059,0,0,1,3.56,1.853c.331.491.438.491.731-.008a3.784,3.784,0,0,0,.649-1.938c0-.291.112-.544.473-.541.312,0,.472.2.472.584a4.077,4.077,0,0,1-.566,1.968c-.2.357-.414.7-.6,1.06a3.5,3.5,0,0,0,.492,4c.205.231.246.047.331-.081a4.341,4.341,0,0,1,2.693-1.952,4.06,4.06,0,0,1,1.18-.112.594.594,0,0,1,.644.619,4.17,4.17,0,0,1-3.209,4.316,1.259,1.259,0,0,0-1.2,1.136,3.293,3.293,0,0,1-.659,1.273,3.642,3.642,0,0,0-.035,4.2c.293.479.433.483.753.006a4.035,4.035,0,0,1,3.563-1.843c.6,0,.793.2.791.809a4.119,4.119,0,0,1-1.329,3.1c-.152.144-.314.293-.555.23a.462.462,0,0,1-.184-.817,3.621,3.621,0,0,0,.857-1.194,4.433,4.433,0,0,0,.214-.743c.069-.364-.1-.519-.465-.429a3.314,3.314,0,0,0-2.6,2.47c-.139.507,0,.659.527.612a3.488,3.488,0,0,1,.443-.038.394.394,0,0,1,.4.318.418.418,0,0,1-.207.473.818.818,0,0,1-.423.122,1.01,1.01,0,0,0-1.006.788,6.7,6.7,0,0,1-.91,1.886,3.34,3.34,0,0,0-.512,1.641c-.009.225-.042.455-.281.563a.461.461,0,0,1-.662-.454,3.783,3.783,0,0,1,.708-2.327,4.142,4.142,0,0,0,.857-2.434,3.851,3.851,0,0,0-.679-2.116,4.442,4.442,0,0,1-.8-1.728c-.067-.424-.429-.539-.794-.613a4.261,4.261,0,0,1-2.162-1.082,4.017,4.017,0,0,1-1.321-3.279c.032-.494.251-.676.756-.658a4.308,4.308,0,0,1,3.586,1.846c.043.061.082.123.125.184.229.319.317.321.542.014a3.923,3.923,0,0,0,.757-2.278m-4.287,1.249c-.481-.009-.616.192-.466.689a3.6,3.6,0,0,0,2.2,2.34,1.324,1.324,0,0,0,.4.083c.426.035.55-.079.505-.5a2.925,2.925,0,0,0-1.181-1.932,2.7,2.7,0,0,0-1.45-.681m2.266-6.568c.292.043.4-.109.379-.429a2.673,2.673,0,0,0-.7-1.516,3.143,3.143,0,0,0-1.844-1.157c-.413-.078-.617.076-.6.424a3.409,3.409,0,0,0,2.762,2.679m3.016,4.313c-.015.482.085.579.424.538a3.367,3.367,0,0,0,2.7-2.652c.041-.328-.073-.463-.4-.457a2.265,2.265,0,0,0-1.35.545,3.237,3.237,0,0,0-1.368,2.025" transform="translate(-803.021 -59.573)" fill="#2984bd"/>
  </g>
</svg>
